<?xml version="1.0" encoding="UTF-8"?>
<!DOCTYPE svg PUBLIC "-//W3C//DTD SVG 1.1//EN" "http://www.w3.org/Graphics/SVG/1.1/DTD/svg11.dtd">
<!-- Creator: CorelDRAW X7 -->
<svg xmlns="http://www.w3.org/2000/svg" xml:space="preserve" width="1.23963in" height="0.944862in" version="1.1" style="shape-rendering:geometricPrecision; text-rendering:geometricPrecision; image-rendering:optimizeQuality; fill-rule:evenodd; clip-rule:evenodd"
viewBox="0 0 464 354"
 xmlns:xlink="http://www.w3.org/1999/xlink">
 <defs>
  <style type="text/css">
   <![CDATA[
    .fil0 {fill:#FEFEFE}
   ]]>
  </style>
 </defs>
 <g id="Layer_x0020_1">
  <metadata id="CorelCorpID_0Corel-Layer"/>
  <path class="fil0" d="M393 29c-30,-13 -61,-23 -95,-29 0,0 -1,0 -1,1 -4,7 -9,16 -12,24 -36,-5 -71,-5 -106,0 -3,-8 -8,-17 -12,-24 0,-1 -1,-1 -1,-1 -34,6 -65,16 -95,29 0,0 0,1 -1,1 -50,76 -70,150 -70,223 0,14 1,27 2,41 0,0 0,1 1,1 39,29 78,47 115,59 1,0 2,0 2,-1 9,-12 17,-25 24,-38 0,-1 0,-2 -1,-3 -13,-4 -25,-10 -36,-17 -1,0 -1,-2 0,-2 2,-2 4,-4 7,-6 0,0 1,0 1,0 76,35 158,35 233,0 1,0 2,0 2,0 2,2 5,4 7,6 1,0 1,2 0,2 -12,7 -24,13 -36,17 -1,1 -1,2 -1,3 7,13 15,26 24,38 0,1 1,1 1,1 38,-12 77,-30 116,-59 1,0 1,-1 1,-1 1,-14 2,-28 2,-41 0,-83 -26,-157 -71,-223 0,0 0,-1 0,-1zm-238 212c-23,0 -42,-21 -42,-47 0,-25 19,-46 42,-46 23,0 42,21 42,46 0,26 -19,47 -42,47zm154 0c-23,0 -41,-21 -41,-47 0,-25 18,-46 41,-46 24,0 42,21 42,46 0,26 -18,47 -42,47z"/>
 </g>
</svg>
