<?xml version="1.0" encoding="UTF-8"?>
<!DOCTYPE svg PUBLIC "-//W3C//DTD SVG 1.1//EN" "http://www.w3.org/Graphics/SVG/1.1/DTD/svg11.dtd">
<!-- Creator: CorelDRAW X7 -->
<svg xmlns="http://www.w3.org/2000/svg" xml:space="preserve" width="3.12669in" height="0.674957in" version="1.1" style="shape-rendering:geometricPrecision; text-rendering:geometricPrecision; image-rendering:optimizeQuality; fill-rule:evenodd; clip-rule:evenodd"
viewBox="0 0 3127 675"
 xmlns:xlink="http://www.w3.org/1999/xlink">
 <defs>
  <style type="text/css">
   <![CDATA[
    .fil1 {fill:#FEFEFE}
    .fil0 {fill:#FEFEFE}
   ]]>
  </style>
 </defs>
 <g id="Layer_x0020_1">
  <metadata id="CorelCorpID_0Corel-Layer"/>
  <path class="fil0" d="M2905 61l176 0 0 68 -176 0 0 -68zm-837 467c-22,0 -43,-5 -63,-14 -19,-10 -35,-22 -49,-38 -11,12 -23,23 -38,31 -24,14 -51,21 -79,21l-355 0c-28,0 -55,-7 -79,-21 -24,-14 -44,-33 -58,-57 -14,-24 -21,-51 -21,-79l0 -128 84 -20 0 148c0,13 3,25 10,37 7,11 16,20 27,27 12,7 24,10 37,10l355 0c13,0 26,-3 37,-10 11,-7 20,-16 27,-27 6,-12 10,-24 10,-37l0 -128 84 -20 0 148c0,13 3,25 10,37 6,11 15,20 26,27 11,7 24,10 37,10 13,0 25,-3 37,-10 11,-7 20,-16 27,-27 6,-12 10,-24 10,-38l0 -157 158 0c28,0 55,6 79,21 24,14 43,33 58,57 14,24 21,51 21,79l0 1c0,13 3,25 10,37 6,11 15,20 27,27 11,6 23,10 36,10l0 0c13,0 25,-4 37,-10 11,-7 20,-16 27,-27 6,-12 10,-24 10,-37l0 -128 83 -20 0 148c0,13 4,25 10,37 7,11 16,20 27,27 11,7 24,10 37,10l73 0c0,-1 -2,-5 -7,-12 -5,-7 -9,-15 -13,-26 -4,-11 -6,-23 -6,-36 0,-29 7,-56 21,-80 14,-24 33,-43 57,-57 25,-14 51,-21 79,-21l159 0 0 315 -363 0c-23,0 -44,-4 -65,-14 -20,-10 -37,-24 -51,-40 -14,16 -31,30 -51,40 -20,10 -42,14 -65,14l-1 0 0 0c-22,0 -44,-5 -63,-14 -19,-9 -35,-22 -49,-38 -11,12 -23,23 -38,31 -24,14 -51,21 -79,21 -23,0 -45,-5 -65,-15 -20,-9 -37,-23 -51,-40 -14,17 -31,31 -51,41 -20,10 -42,14 -65,14l-2 0 0 0zm-494 -296l176 0 0 68 -176 0 0 -68zm728 213c13,0 26,-3 37,-10 11,-7 20,-16 27,-27 7,-12 10,-24 10,-38 0,-13 -3,-25 -10,-37 -7,-11 -16,-20 -27,-27 -11,-6 -24,-10 -37,-10l-74 0 0 74c0,14 4,26 10,38 7,11 15,20 27,27 11,7 23,10 37,10zm329 230l-175 0 0 -69 175 0 0 69zm412 -230l0 -149 -75 0c-13,0 -25,4 -37,11 -11,6 -20,15 -27,27 -6,11 -10,23 -10,37 0,13 4,25 10,37 7,11 16,20 27,27 12,7 24,10 37,10l75 0z"/>
  <path class="fil1" d="M188 0l744 0c104,0 189,85 189,188l0 255c0,103 -85,188 -189,188l-744 0c-103,0 -188,-85 -188,-188l0 -255c0,-103 85,-188 188,-188zm-23 371c12,14 25,25 37,32 13,7 25,11 37,11 12,0 21,-3 28,-10 8,-6 11,-13 11,-23 0,-10 -3,-18 -9,-24 -6,-6 -21,-11 -43,-17 -31,-9 -53,-20 -65,-33 -13,-13 -20,-31 -20,-55 0,-30 10,-54 31,-73 20,-19 46,-28 78,-28 17,0 34,2 49,7 16,4 30,11 44,21l-27 61c-9,-8 -19,-14 -30,-19 -10,-4 -20,-6 -30,-6 -10,0 -19,3 -25,8 -6,4 -10,11 -10,19 0,7 3,14 9,18 5,5 16,10 32,14l4 1c35,9 58,20 69,31 8,8 13,17 17,28 4,11 6,23 6,36 0,33 -11,60 -33,80 -22,20 -51,30 -87,30 -22,0 -42,-3 -60,-11 -18,-7 -35,-19 -52,-35l39 -63zm239 -213l85 0 0 153c0,22 1,38 2,48 1,10 3,18 6,25 3,8 9,14 17,18 8,4 18,6 30,6 11,0 21,-2 29,-6 8,-4 14,-10 18,-18 2,-7 4,-15 5,-25 2,-10 2,-26 2,-48l0 -22 0 -131 85 0 0 166c0,35 -2,60 -6,76 -4,17 -11,31 -21,42 -11,13 -25,23 -44,29 -19,6 -41,9 -68,9 -27,0 -50,-3 -68,-9 -19,-6 -34,-16 -45,-29 -9,-11 -16,-25 -21,-42 -4,-16 -6,-41 -6,-76l0 -33 0 -133zm424 126l17 0c21,0 36,-3 43,-7 8,-5 12,-13 12,-24 0,-12 -3,-21 -11,-25 -7,-5 -22,-8 -43,-8l-18 0 0 64zm-80 188l0 -314 86 0c36,0 61,1 75,4 14,2 26,6 36,11 12,7 20,15 27,26 6,11 9,23 9,38 0,17 -5,32 -14,42 -9,11 -24,19 -44,24 23,2 40,10 53,24 12,14 19,32 19,55 0,17 -4,32 -11,45 -7,12 -17,22 -30,29 -11,6 -24,10 -40,12 -16,3 -41,4 -77,4l-89 0zm80 -64l30 0c20,0 34,-3 43,-8 8,-5 12,-13 12,-25 0,-13 -3,-22 -11,-28 -8,-5 -22,-8 -43,-8l-31 0 0 69z"/>
 </g>
</svg>
