<?xml version="1.0" encoding="UTF-8"?>
<!DOCTYPE svg PUBLIC "-//W3C//DTD SVG 1.1//EN" "http://www.w3.org/Graphics/SVG/1.1/DTD/svg11.dtd">
<!-- Creator: CorelDRAW X7 -->
<svg xmlns="http://www.w3.org/2000/svg" xml:space="preserve" width="2.30333in" height="3.09258in" version="1.1" style="shape-rendering:geometricPrecision; text-rendering:geometricPrecision; image-rendering:optimizeQuality; fill-rule:evenodd; clip-rule:evenodd"
viewBox="0 0 2017 2708"
 xmlns:xlink="http://www.w3.org/1999/xlink">
 <defs>
  <style type="text/css">
   <![CDATA[
    .fil0 {fill:#6441A5}
   ]]>
  </style>
 </defs>
 <g id="Layer_x0020_1">
  <metadata id="CorelCorpID_0Corel-Layer"/>
  <g id="_2475961884208">
   <path class="fil0" d="M1121 2300c-364,73 -664,-193 -719,-490 -67,-372 196,-666 492,-720 653,-120 1017,737 451,1121 -73,51 -128,69 -224,89zm-863 67c-77,85 -174,134 -179,336 323,0 670,12 989,-1 382,-15 725,-269 868,-609 110,-261 108,-562 -11,-820 -359,-775 -1451,-777 -1820,-26 -183,371 -124,818 153,1120z"/>
   <path class="fil0" d="M1901 252c-419,-266 -974,-324 -1443,-161 -71,24 -335,130 -385,199 39,43 79,113 112,160 39,54 69,111 114,156 50,-25 92,-56 148,-81 312,-142 639,-171 967,-62 202,67 222,110 314,148l216 -321 -43 -38z"/>
  </g>
 </g>
</svg>
